<svg width="41" height="41" viewBox="0 0 41 41" fill="none" xmlns="http://www.w3.org/2000/svg">
<path d="M37.2587 6.73084C34.6279 13.2908 28.0337 22.2083 22.5158 26.6329L19.1504 29.3321C18.7233 29.6396 18.2962 29.9129 17.8179 30.1008C17.8179 29.7933 17.8008 29.4517 17.7496 29.1271C17.5617 27.6921 16.9125 26.3596 15.7679 25.215C14.6062 24.0533 13.1883 23.37 11.7362 23.1821C11.3946 23.165 11.0529 23.1308 10.7112 23.165C10.8992 22.6354 11.1896 22.14 11.5483 21.73L14.2133 18.3646C18.6208 12.8467 27.5725 6.21834 34.1154 3.60459C35.1233 3.22875 36.0971 3.50209 36.7121 4.13417C37.3612 4.76625 37.6687 5.74 37.2587 6.73084Z" stroke="#292D32" stroke-width="1.5" stroke-linecap="round" stroke-linejoin="round"/>
<path d="M17.8179 30.1008C17.8179 31.98 17.1004 33.7738 15.7508 35.1404C14.7088 36.1825 13.2908 36.9 11.5996 37.1221L7.39708 37.5833C5.10792 37.8396 3.14333 35.8921 3.41667 33.5688L3.87792 29.3663C4.28792 25.625 7.41417 23.2333 10.7283 23.165C11.07 23.1479 11.4288 23.165 11.7533 23.1821C13.2054 23.37 14.6233 24.0363 15.785 25.215C16.9296 26.3596 17.5787 27.6921 17.7667 29.1271C17.7837 29.4517 17.8179 29.7763 17.8179 30.1008Z" stroke="#292D32" stroke-width="1.5" stroke-linecap="round" stroke-linejoin="round"/>
<path d="M24.3267 24.7196C24.3267 20.2608 20.705 16.6392 16.2463 16.6392" stroke="#292D32" stroke-width="1.5" stroke-linecap="round" stroke-linejoin="round"/>
</svg>
